<svg xmlns="http://www.w3.org/2000/svg" width="124" height="54" fill="none"><path fill="#282828" d="m18.331.5-7.558 16.315v7.66H7.558v-7.66L0 .5h3.215l5.506 11.92h.89L15.115.498h3.215ZM36.546.5v3.228H23.413v9.858h9.61v3.23h-9.61v4.43h13.133v3.229H20.232V.499h16.314ZM42.484.5v20.746h13.098v3.229H39.27V.499h3.215ZM61.52.5v20.746h13.1v3.229H58.305V.499h3.215ZM97.448 12.487c0 1.695-.308 3.286-.924 4.775a12.382 12.382 0 0 1-2.462 3.915 11.773 11.773 0 0 1-3.694 2.61c-1.39.642-2.884.963-4.48.963-1.596 0-3.1-.321-4.514-.962a11.892 11.892 0 0 1-3.66-2.61 12.889 12.889 0 0 1-2.496-3.916c-.593-1.489-.889-3.08-.889-4.775 0-1.694.296-3.286.89-4.774.615-1.489 1.447-2.783 2.496-3.882a11.628 11.628 0 0 1 3.659-2.645 10.802 10.802 0 0 1 4.514-.961c1.596 0 3.09.32 4.48.961a11.514 11.514 0 0 1 3.694 2.645c1.049 1.1 1.87 2.393 2.462 3.882.616 1.488.924 3.08.924 4.774Zm-3.352 0c0-1.26-.216-2.439-.65-3.538a9.284 9.284 0 0 0-1.778-2.885 7.708 7.708 0 0 0-2.6-1.924 7.124 7.124 0 0 0-3.18-.721c-1.14 0-2.211.24-3.214.721a8.181 8.181 0 0 0-2.6 1.924 9.644 9.644 0 0 0-1.744 2.885 9.561 9.561 0 0 0-.65 3.538c0 1.26.217 2.439.65 3.538a9.643 9.643 0 0 0 1.745 2.885 8.652 8.652 0 0 0 2.599 1.958 7.65 7.65 0 0 0 3.214.687c1.14 0 2.2-.229 3.18-.687a8.123 8.123 0 0 0 2.6-1.958 9.283 9.283 0 0 0 1.778-2.885 9.56 9.56 0 0 0 .65-3.538ZM123.75.5v23.975h-6.224l-5.335-16.316h-.342l-5.472 16.316h-6.19V.499h3.249v20.747h.41l5.472-16.35h5.404l5.369 16.35h.41V.499h3.249ZM23.55 29.456v23.976h-3.247V32.684h-.41l-5.47 16.35h-5.4l-5.366-16.35h-.41V53.43H0V29.456h6.22l5.299 16.316h.376l5.468-16.316h6.187ZM37.847 45.806v-3.229h11.484v10.855h-3.008v-4.947h-.546a5.26 5.26 0 0 1-1.094 2.302 7.672 7.672 0 0 1-1.948 1.683 8.46 8.46 0 0 1-2.393.962 9.49 9.49 0 0 1-2.495.343 10.79 10.79 0 0 1-4.512-.962 11.884 11.884 0 0 1-3.657-2.61 12.889 12.889 0 0 1-2.495-3.916c-.592-1.489-.889-3.08-.889-4.774 0-1.695.297-3.286.889-4.775.615-1.488 1.447-2.782 2.495-3.881a11.62 11.62 0 0 1 3.657-2.645 10.79 10.79 0 0 1 4.512-.962c1.23 0 2.415.195 3.555.584 1.139.39 2.176.939 3.11 1.649.934.71 1.755 1.557 2.46 2.542a11.63 11.63 0 0 1 1.71 3.194h-3.623c-.684-1.443-1.664-2.6-2.94-3.47-1.276-.87-2.7-1.305-4.272-1.305-1.14 0-2.21.24-3.213.722a8.514 8.514 0 0 0-2.632 1.958 9.647 9.647 0 0 0-1.743 2.885 9.474 9.474 0 0 0-.65 3.504c0 1.236.217 2.404.65 3.503a9.647 9.647 0 0 0 1.743 2.885 8.514 8.514 0 0 0 2.632 1.958 7.334 7.334 0 0 0 3.213.722c1.572 0 2.996-.436 4.272-1.306 1.276-.87 2.268-2.026 2.974-3.469h-7.246ZM68.4 29.456v3.229h-6.562V53.43h-3.213V32.686h-6.563v-3.229H68.4ZM123.751 44.305a9.45 9.45 0 1 1-9.448-9.43 9.442 9.442 0 0 1 8.726 5.818 9.445 9.445 0 0 1 .722 3.612Z"/><path fill="#FDE170" d="M94.725 38.678a9.45 9.45 0 1 1-9.45-9.428 9.44 9.44 0 0 1 9.45 9.428Z"/></svg>