<svg xmlns="http://www.w3.org/2000/svg" width="618" height="147" fill="none"><path fill="#282828" d="M49.844.583v50.834h-6.872V7.43h-.868L30.529 42.095h-11.43L7.74 7.43h-.868v43.988H0V.583h13.166L24.38 35.176h.795L36.75.583h13.094ZM83.578 35.176H65.275l-4.268 16.241h-7.09L67.445.583H81.48l13.528 50.834h-7.09l-4.34-16.24Zm-1.809-6.846L76.199 7.43h-3.545L67.156 28.33h14.613ZM125.416.583v6.846h-13.89v43.988h-6.801V7.43h-13.89V.583h34.581ZM165.049.583v6.846h-13.89v43.988h-6.8V7.43h-13.89V.583h34.58ZM205.333.583v6.846h-27.78V28.33h20.329v6.846h-20.329v9.395h27.78v6.846h-34.508V.583h34.508ZM217.895 51.417h-6.8V.583h16.349c1.833 0 3.569.364 5.209 1.092a13.315 13.315 0 0 1 4.268 2.986c1.206 1.214 2.146 2.67 2.821 4.37a13.606 13.606 0 0 1 1.085 5.39c0 2.136-.434 4.102-1.302 5.898-.82 1.797-1.929 3.326-3.327 4.589h4.412l.217 26.51h-6.8l-.217-23.087h-15.915v23.086Zm0-29.932h9.549c.965 0 1.857-.17 2.677-.51a6.706 6.706 0 0 0 2.098-1.53 6.473 6.473 0 0 0 1.447-2.257 6.79 6.79 0 0 0 .578-2.768c0-1.942-.651-3.593-1.953-4.952-1.302-1.408-2.918-2.112-4.847-2.112h-9.549v14.129ZM255.225 13.4c0 1.02.217 1.894.651 2.622a8.12 8.12 0 0 0 1.737 1.894 15.98 15.98 0 0 0 2.387 1.31c.868.34 1.712.632 2.532.875 1.061.34 2.146.68 3.255 1.02 1.158.29 2.34.606 3.545.946a34.24 34.24 0 0 1 6.511 2.55c2.122 1.019 3.883 2.548 5.281 4.587 1.254 1.7 1.881 4.055 1.881 7.065v.655c-.386 5.293-2.098 9.128-5.136 11.507C274.83 50.811 270.827 52 265.86 52c-2.797 0-5.402-.364-7.813-1.092-2.363-.777-4.413-1.894-6.149-3.35-1.688-1.506-3.015-3.35-3.979-5.536-.965-2.233-1.447-4.782-1.447-7.647v-1.02h6.728c.337 3.69 1.447 6.58 3.328 8.667 1.929 2.04 4.798 3.06 8.608 3.06 1.303 0 2.605-.098 3.907-.292 1.35-.243 2.532-.655 3.545-1.238 1.061-.583 1.905-1.36 2.532-2.33.675-1.02 1.013-2.307 1.013-3.86 0-1.215-.193-2.258-.579-3.132a6.023 6.023 0 0 0-1.519-2.258c-.627-.68-1.399-1.262-2.315-1.748a21.656 21.656 0 0 0-2.822-1.31 30.576 30.576 0 0 0-3.183-1.02 36.35 36.35 0 0 0-3.472-.874 35.131 35.131 0 0 1-6.511-2.112 15.39 15.39 0 0 1-5.354-4.152c-1.35-1.65-2.025-4.03-2.025-7.137 0-2.428.434-4.491 1.302-6.19.916-1.7 2.098-3.108 3.545-4.225 1.495-1.116 3.207-1.917 5.136-2.403A23.206 23.206 0 0 1 264.413 0c4.871 0 8.85 1.262 11.937 3.787 3.086 2.525 4.75 6.336 4.991 11.434h-6.728c-.482-2.913-1.543-5.025-3.183-6.336-1.64-1.36-3.906-2.04-6.8-2.04-1.061 0-2.146.098-3.255.292a9.097 9.097 0 0 0-3.039 1.093 6.044 6.044 0 0 0-2.242 2.039c-.579.825-.869 1.87-.869 3.132ZM334.8 35.176h-18.303l-4.268 16.241h-7.09L318.667.583h14.035l13.528 50.834h-7.09l-4.34-16.24Zm-1.809-6.846-5.57-20.901h-3.545l-5.498 20.901h14.613ZM375.862.583V44.57h27.708v6.846h-34.508V.583h6.8ZM583.86 26c0 3.593-.651 6.967-1.953 10.123-1.254 3.156-2.991 5.924-5.209 8.303-2.219 2.33-4.823 4.175-7.813 5.535-2.769 1.28-5.731 1.957-8.885 2.032-.197.005-132.394.007-132.592.007-3.376 0-6.559-.68-9.549-2.04a25.155 25.155 0 0 1-7.741-5.534c-2.219-2.38-3.979-5.147-5.281-8.303-1.254-3.156-1.881-6.53-1.881-10.123 0-3.593.627-6.967 1.881-10.123 1.302-3.156 3.062-5.9 5.281-8.23a24.591 24.591 0 0 1 7.741-5.608C420.849.68 424.032 0 427.408 0c.093 0 132.185 0 132.277.002 3.272.036 6.339.715 9.2 2.037a24.365 24.365 0 0 1 7.813 5.608c2.218 2.33 3.955 5.074 5.209 8.23 1.302 3.156 1.953 6.53 1.953 10.123Zm-7.09 0c0-2.67-.458-5.17-1.374-7.501-.917-2.33-2.171-4.37-3.762-6.118a16.304 16.304 0 0 0-5.498-4.078c-1.994-.98-4.144-1.49-6.451-1.528l-132.277-.002c-2.412 0-4.678.51-6.8 1.53-2.074.97-3.907 2.33-5.498 4.078-1.544 1.748-2.774 3.787-3.69 6.118-.916 2.33-1.374 4.83-1.374 7.501 0 2.67.458 5.17 1.374 7.501.916 2.33 2.146 4.37 3.69 6.118a18.3 18.3 0 0 0 5.498 4.151c2.122.971 4.388 1.457 6.8 1.457.198 0 132.396-.003 132.592-.01 2.187-.073 4.233-.556 6.136-1.447a17.183 17.183 0 0 0 5.498-4.151c1.591-1.748 2.845-3.787 3.762-6.118.916-2.33 1.374-4.83 1.374-7.501ZM618 .583v6.846h-13.89v43.988h-6.8V7.43h-13.89V.583H618ZM56.837 62.952v11.19h-22.83v71.906H22.83V74.143H0v-11.19h56.837ZM123.05 62.952v83.096h-11.058V119.5H77.509v26.548H66.332V62.952h11.177v45.358h34.483V62.952h11.058ZM190.515 62.952v11.19h-45.66v34.168h33.413v11.19h-33.413v15.357h45.66v11.191h-56.718V62.952h56.718ZM213.184 83.905c0 1.666.356 3.095 1.07 4.285a13.26 13.26 0 0 0 2.853 3.096 26.425 26.425 0 0 0 3.924 2.143 51.993 51.993 0 0 0 4.162 1.428 443.83 443.83 0 0 0 5.351 1.667c1.902.476 3.845.992 5.826 1.547a56.471 56.471 0 0 1 10.702 4.167c3.488 1.667 6.381 4.167 8.68 7.5 2.061 2.778 3.092 6.627 3.092 11.548v1.071c-.635 8.651-3.449 14.921-8.443 18.81-4.994 3.889-11.573 5.833-19.738 5.833-4.598 0-8.879-.595-12.842-1.786-3.884-1.27-7.253-3.095-10.107-5.476-2.775-2.46-4.954-5.476-6.54-9.048-1.585-3.65-2.378-7.817-2.378-12.5v-1.666h11.058c.555 6.032 2.378 10.754 5.47 14.166 3.171 3.334 7.887 5 14.15 5 2.14 0 4.28-.158 6.421-.476 2.219-.397 4.161-1.071 5.826-2.024 1.744-.952 3.131-2.222 4.162-3.809 1.11-1.667 1.664-3.77 1.664-6.31 0-1.984-.317-3.69-.951-5.119a9.836 9.836 0 0 0-2.497-3.69c-1.03-1.111-2.299-2.064-3.805-2.857a35.65 35.65 0 0 0-4.637-2.143 50.418 50.418 0 0 0-5.232-1.667 59.868 59.868 0 0 0-5.708-1.428 58.025 58.025 0 0 1-10.701-3.453c-3.409-1.587-6.342-3.849-8.799-6.785-2.22-2.699-3.329-6.588-3.329-11.667 0-3.968.713-7.341 2.14-10.12 1.506-2.777 3.448-5.078 5.826-6.904 2.458-1.825 5.272-3.135 8.443-3.928a38.332 38.332 0 0 1 9.988-1.31c8.006 0 14.546 2.064 19.619 6.19 5.073 4.127 7.808 10.358 8.205 18.691H245.05c-.792-4.762-2.536-8.214-5.231-10.357-2.696-2.222-6.421-3.334-11.178-3.334-1.744 0-3.527.16-5.35.477-1.824.317-3.488.912-4.994 1.785a9.924 9.924 0 0 0-3.687 3.334c-.951 1.349-1.426 3.055-1.426 5.119ZM325.097 62.952v11.19h-45.66v34.168h33.413v11.19h-33.413v15.357h45.66v11.191h-56.718V62.952h56.718ZM365.455 146.048V62.952h21.403c5.549 0 10.781 1.112 15.695 3.334 4.915 2.143 9.196 5.08 12.842 8.81 3.647 3.73 6.501 8.134 8.562 13.213 2.14 5.08 3.21 10.477 3.21 16.191 0 5.714-1.07 11.111-3.21 16.19-2.061 5-4.915 9.405-8.562 13.215-3.646 3.73-7.927 6.706-12.842 8.928-4.914 2.143-10.146 3.215-15.695 3.215h-21.403Zm21.403-10.953c3.963 0 7.689-.793 11.177-2.381a28.905 28.905 0 0 0 9.156-6.547c2.616-2.778 4.677-6.032 6.183-9.762 1.506-3.73 2.259-7.699 2.259-11.905 0-4.206-.753-8.175-2.259-11.905-1.506-3.73-3.567-6.944-6.183-9.643a28.899 28.899 0 0 0-9.156-6.547c-3.488-1.588-7.214-2.381-11.177-2.381h-10.226v61.071h10.226ZM475.539 119.5h-30.084l-7.015 26.548h-11.653l22.236-83.096h23.067l22.236 83.096h-11.653l-7.134-26.548Zm-2.973-11.19-9.156-34.167h-5.826l-9.037 34.167h24.019ZM552.531 62.952 526.253 119.5v26.548h-11.177V119.5l-26.278-56.548h11.177l19.144 41.31h3.091l19.144-41.31h11.177ZM572.34 83.905c0 1.666.357 3.095 1.07 4.285a13.264 13.264 0 0 0 2.854 3.096 26.326 26.326 0 0 0 3.924 2.143 51.858 51.858 0 0 0 4.162 1.428c1.744.556 3.527 1.111 5.35 1.667 1.903.476 3.845.992 5.827 1.547a56.436 56.436 0 0 1 10.701 4.167c3.488 1.667 6.382 4.167 8.68 7.5 2.061 2.778 3.092 6.627 3.092 11.548v1.071c-.634 8.651-3.448 14.921-8.442 18.81-4.994 3.889-11.574 5.833-19.739 5.833-4.597 0-8.878-.595-12.842-1.786-3.884-1.27-7.253-3.095-10.107-5.476-2.774-2.46-4.954-5.476-6.539-9.048-1.586-3.65-2.379-7.817-2.379-12.5v-1.666h11.059c.555 6.032 2.378 10.754 5.469 14.166 3.171 3.334 7.888 5 14.15 5 2.141 0 4.281-.158 6.421-.476 2.22-.397 4.162-1.071 5.827-2.024 1.744-.952 3.131-2.222 4.161-3.809 1.11-1.667 1.665-3.77 1.665-6.31 0-1.984-.317-3.69-.951-5.119a9.848 9.848 0 0 0-2.497-3.69c-1.031-1.111-2.299-2.064-3.805-2.857a35.665 35.665 0 0 0-4.638-2.143 50.265 50.265 0 0 0-5.232-1.667 59.847 59.847 0 0 0-5.707-1.428 58.035 58.035 0 0 1-10.702-3.453c-3.408-1.587-6.341-3.849-8.799-6.785-2.219-2.699-3.329-6.588-3.329-11.667 0-3.968.714-7.341 2.14-10.12 1.507-2.777 3.449-5.078 5.827-6.904 2.457-1.825 5.271-3.135 8.442-3.928 3.25-.873 6.58-1.31 9.988-1.31 8.007 0 14.546 2.064 19.62 6.19 5.073 4.127 7.808 10.358 8.204 18.691h-11.058c-.793-4.762-2.537-8.214-5.232-10.357-2.695-2.222-6.421-3.334-11.177-3.334-1.744 0-3.528.16-5.351.477-1.823.317-3.488.912-4.994 1.785a9.921 9.921 0 0 0-3.686 3.334c-.951 1.349-1.427 3.055-1.427 5.119Z"/></svg>