<svg xmlns="http://www.w3.org/2000/svg" width="620" height="544" fill="none"><path stroke="#333" stroke-miterlimit="10" stroke-width="5" d="M173.65 3.564a127.18 127.18 0 0 1 48.604 9.466 126.89 126.89 0 0 1 41.266 27.299 123.932 123.932 0 0 1 27.554 40.58 123.64 123.64 0 0 1 9.626 48.057 123.635 123.635 0 0 1-9.628 48.052 123.916 123.916 0 0 1-27.552 40.575 126.861 126.861 0 0 1-41.265 27.303 127.174 127.174 0 0 1-48.605 9.467"/><path stroke="#333" stroke-miterlimit="10" stroke-width="5" d="M173.65 14.564a116.221 116.221 0 0 1 44.417 8.635 115.95 115.95 0 0 1 37.715 24.933 113.054 113.054 0 0 1 25.133 37.007 112.76 112.76 0 0 1 8.785 43.825 112.776 112.776 0 0 1-8.786 43.824 113.032 113.032 0 0 1-25.132 37.007 115.98 115.98 0 0 1-37.717 24.93 116.262 116.262 0 0 1-44.415 8.638"/><path stroke="#333" stroke-miterlimit="10" stroke-width="5" d="M173.65 25.564a105.318 105.318 0 0 1 40.229 7.821 105.019 105.019 0 0 1 34.159 22.574 102.067 102.067 0 0 1 22.719 33.421 101.793 101.793 0 0 1 7.943 39.583 101.794 101.794 0 0 1-7.943 39.584 102.062 102.062 0 0 1-22.719 33.421 105.025 105.025 0 0 1-34.159 22.574 105.32 105.32 0 0 1-40.229 7.821"/><path stroke="#333" stroke-miterlimit="10" stroke-width="5" d="M173.65 36.564a94.37 94.37 0 0 1 36.041 6.999 94.08 94.08 0 0 1 30.603 20.211 91.135 91.135 0 0 1 20.303 29.842 90.854 90.854 0 0 1 7.103 35.347 90.888 90.888 0 0 1-7.102 35.347 91.192 91.192 0 0 1-20.298 29.843 94.099 94.099 0 0 1-30.607 20.21 94.393 94.393 0 0 1-36.043 7"/><path stroke="#333" stroke-miterlimit="10" stroke-width="5" d="M173.65 47.564a83.467 83.467 0 0 1 31.854 6.175 83.164 83.164 0 0 1 27.052 17.846 80.259 80.259 0 0 1 17.882 26.266 79.96 79.96 0 0 1 6.262 31.112 79.943 79.943 0 0 1-6.262 31.11 80.248 80.248 0 0 1-17.882 26.264 83.177 83.177 0 0 1-27.052 17.848 83.485 83.485 0 0 1-31.854 6.178"/><path stroke="#333" stroke-miterlimit="10" stroke-width="5" d="M173.65 58.564a72.52 72.52 0 0 1 27.667 5.351 72.23 72.23 0 0 1 23.499 15.483 69.32 69.32 0 0 1 15.464 22.684 69.021 69.021 0 0 1 5.42 26.873 69.001 69.001 0 0 1-5.415 26.881 69.284 69.284 0 0 1-15.469 22.688 72.23 72.23 0 0 1-23.493 15.485 72.51 72.51 0 0 1-27.662 5.354M40 58.563h134.2M42.249 1.25v255M53.398 14.463v229M64.398 25.463v207M75.398 36.463v185M86.398 47.463v163M97.249 57.463v141.9M40 47.563h134.2M40 36.563h134.2M40 25.564h134.2M40 14.563h134.2M40 3.563h134.2M40 199.363h134.2M40 210.363h134.2M40 221.363h134.2M40 232.363h134.2M40 243.363h134.2M40 254.363h134.2M454.886 254.149a125.695 125.695 0 0 1-116.014-77.341 125.692 125.692 0 0 1 26.759-136.84 125.688 125.688 0 0 1 178.515 176.977 124.802 124.802 0 0 1-89.26 37.204Z"/><path stroke="#333" stroke-miterlimit="10" stroke-width="5" d="M454.23 243.149a114.582 114.582 0 0 1-105.762-70.505 114.58 114.58 0 0 1 24.394-124.746 114.58 114.58 0 0 1 162.741 161.335 113.76 113.76 0 0 1-81.373 33.916Z"/><path stroke="#333" stroke-miterlimit="10" stroke-width="5" d="M454.021 232.149a103.385 103.385 0 0 1-57.339-17.374 103.39 103.39 0 0 1-44.108-105.868 103.397 103.397 0 0 1 61.487-75.51 103.4 103.4 0 0 1 113.428 168.146 102.646 102.646 0 0 1-73.468 30.606Z"/><path stroke="#333" stroke-miterlimit="10" stroke-width="5" d="M454.595 221.151a92.4 92.4 0 1 0-65.615-27.35 91.748 91.748 0 0 0 65.615 27.35Z"/><path stroke="#333" stroke-miterlimit="10" stroke-width="5" d="M454.623 210.149a81.398 81.398 0 0 1-31.36-156.525 81.4 81.4 0 0 1 89.17 132.41 80.843 80.843 0 0 1-57.81 24.115Z"/><path stroke="#333" stroke-miterlimit="10" stroke-width="5" d="M454.621 199.149a70.402 70.402 0 0 1-69.047-56.568 70.402 70.402 0 0 1 41.922-78.804 70.402 70.402 0 0 1 97.196 71.576 70.395 70.395 0 0 1-20.071 42.937 69.9 69.9 0 0 1-50 20.859ZM40 347.227a68.342 68.342 0 0 1 19.927-48.4 68.251 68.251 0 0 1 48.823-20.35 68.264 68.264 0 0 1 48.824 20.35 68.597 68.597 0 0 1 15.35 23.65"/><path stroke="#333" stroke-miterlimit="10" stroke-width="5" d="M51 347.227a57.41 57.41 0 0 1 16.737-40.656 57.351 57.351 0 0 1 41.013-17.094 57.36 57.36 0 0 1 41.014 17.094 57.596 57.596 0 0 1 14.3 23.93"/><path stroke="#333" stroke-miterlimit="10" stroke-width="5" d="M62 347.227a46.459 46.459 0 0 1 13.552-32.912 46.421 46.421 0 0 1 33.198-13.838 46.422 46.422 0 0 1 33.198 13.838 46.509 46.509 0 0 1 11.506 19.162"/><path stroke="#333" stroke-miterlimit="10" stroke-width="5" d="M73 347.227a35.531 35.531 0 0 1 10.362-25.162 35.504 35.504 0 0 1 25.388-10.582 35.51 35.51 0 0 1 25.388 10.582 35.602 35.602 0 0 1 8.839 14.811"/><path stroke="#333" stroke-miterlimit="10" stroke-width="5" d="M84 347.227a24.589 24.589 0 0 1 7.178-17.424 24.588 24.588 0 0 1 17.572-7.326 24.6 24.6 0 0 1 17.6 7.326 24.657 24.657 0 0 1 6.177 10.549"/><path stroke="#333" stroke-miterlimit="10" stroke-width="5" d="M95 347.227a13.682 13.682 0 0 1 3.988-9.68 13.639 13.639 0 0 1 9.762-4.07 13.622 13.622 0 0 1 9.763 4.075 13.762 13.762 0 0 1 3.289 5.335M62.281 344.479V539.48M51.281 344.479V539.48M40.281 344.479V539.48M73.281 344.479V539.48M84.281 344.479V539.48M95.281 344.479V539.48M245.101 272.521v200.936M256.101 272.521v200.936M267.101 272.521v200.936M278.101 272.521v200.936M289.101 272.521v200.936M300.101 272.521v200.936M300.112 473.188a62.865 62.865 0 0 1-18.332 44.55 62.799 62.799 0 0 1-44.918 18.7 62.816 62.816 0 0 1-44.913-18.7 63.33 63.33 0 0 1-12.892-18.789 62.04 62.04 0 0 1-2.475-6.501"/><path stroke="#333" stroke-miterlimit="10" stroke-width="5" d="M289.112 473.188a51.962 51.962 0 0 1-15.142 36.789 51.902 51.902 0 0 1-37.108 15.461 51.889 51.889 0 0 1-37.103-15.461 52.041 52.041 0 0 1-12.595-20.581"/><path stroke="#333" stroke-miterlimit="10" stroke-width="5" d="M278.112 473.188a41.011 41.011 0 0 1-11.935 29.045 40.96 40.96 0 0 1-29.293 12.205 40.969 40.969 0 0 1-29.293-12.205 41.172 41.172 0 0 1-10.076-16.665"/><path stroke="#333" stroke-miterlimit="10" stroke-width="5" d="M267.112 473.188a30.083 30.083 0 0 1-8.767 21.301 30.069 30.069 0 0 1-21.483 8.949 30.047 30.047 0 0 1-21.478-8.949 30.106 30.106 0 0 1-7.48-12.524"/><path stroke="#333" stroke-miterlimit="10" stroke-width="5" d="M256.112 473.188a19.133 19.133 0 0 1-5.577 13.557 19.114 19.114 0 0 1-13.673 5.693 19.119 19.119 0 0 1-13.668-5.693 19.252 19.252 0 0 1-4.295-6.6"/><path stroke="#333" stroke-miterlimit="10" stroke-width="5" d="M245.112 473.188a8.166 8.166 0 0 1-2.393 5.807 8.168 8.168 0 0 1-5.857 2.443 8.21 8.21 0 0 1-5.858-2.437 8.251 8.251 0 0 1-1.771-2.668M172.93 322.482l56.32 153.901M178.32 497.278l-56.43-154.17-.352-.968M163.767 329.506l55.434 151.448M187.433 490.166l-55.308-151.112M153.333 332.993l54.835 149.826M197.597 485.943l-54.714-149.49M403.175 422.5a70.126 70.126 0 0 1 0-140.25"/><path stroke="#333" stroke-miterlimit="10" stroke-width="5" d="M403.175 411.5a59.126 59.126 0 1 1 0-118.25"/><path stroke="#333" stroke-miterlimit="10" stroke-width="5" d="M403.175 400.5a48.125 48.125 0 1 1 0-96.25"/><path stroke="#333" stroke-miterlimit="10" stroke-width="5" d="M403.175 389.5a37.121 37.121 0 0 1-26.251-10.874 37.121 37.121 0 0 1 0-52.502 37.121 37.121 0 0 1 26.251-10.874"/><path stroke="#333" stroke-miterlimit="10" stroke-width="5" d="M403.175 378.5a26.125 26.125 0 0 1 0-52.25M403.175 378.5a75.628 75.628 0 0 0-75.625 75.625 75.626 75.626 0 0 0 75.625 75.625"/><path stroke="#333" stroke-miterlimit="10" stroke-width="5" d="M403.175 367.5a86.626 86.626 0 0 0-61.253 147.878 86.626 86.626 0 0 0 61.253 25.372"/><path stroke="#333" stroke-miterlimit="10" stroke-width="5" d="M403.175 271.25a81.124 81.124 0 1 0 0 162.25"/><path stroke="#333" stroke-miterlimit="10" stroke-width="5" d="M403.175 518.75a64.628 64.628 0 0 1-64.625-64.625 64.628 64.628 0 0 1 64.625-64.625"/><path stroke="#333" stroke-miterlimit="10" stroke-width="5" d="M403.175 507.75a53.63 53.63 0 0 1-37.919-15.706 53.63 53.63 0 0 1 0-75.838 53.63 53.63 0 0 1 37.919-15.706"/><path stroke="#333" stroke-miterlimit="10" stroke-width="5" d="M403.175 496.75a42.622 42.622 0 0 1-30.14-12.485 42.622 42.622 0 0 1 0-60.28 42.622 42.622 0 0 1 30.14-12.485"/><path stroke="#333" stroke-miterlimit="10" stroke-width="5" d="M403.175 485.75a31.625 31.625 0 0 1 0-63.25M580 507.75H402.9M580 518.75H402.9M580 529.75H402.9M580 540.75H402.9M580 496.75H402.9M580 485.75H402.9M580 433.5H402.9M580 422.5H402.9M580 411.5H402.9M580 400.5H402.9M580 389.5H402.9M580 378.5H402.9M580 367.5H402.9M580 326.25H402.9M580 315.25H402.9M580 304.25H402.9M580 293.25H402.9M580 282.25H402.9M580 271.25H402.9"/></svg>