<svg xmlns="http://www.w3.org/2000/svg" version="2.0" viewBox="0 0.28 248.52 140.23"><path fill="red" d="M0 130.42V32.71C.41 15.68 12.48 3.04 29 .74 41.37-.98 59.09 1.78 64.32 14.86q1.61 4.02 1.68 14.6.06 10.52.1 21.03c.07 21.3 13.75 43.22 36.43 45.84 12.95 1.49 26.47.57 39.14 3.53 13.14 3.07 21.21 17.32 21.63 30.13.25 7.59-3.2 10.45-10.37 10.48q-12.96.06-25.93.02c-6.4-.02-10.77-1.36-10.96-8.44-.1-3.89.56-14.1-1.7-17.01-1.76-2.26-5.16-2.57-6.89-.25-2.23 3-1.44 12.27-1.47 17.43-.04 6.92-4.69 8.28-10.87 8.28q-15.82 0-31.61-.09c-5.34-.02-7.39-3.03-7.79-8.19q-.52-6.85-.71-13.72c-.11-4.11-4.84-6.98-7.99-3.66-5.75 6.08 4.42 25.54-9.56 25.62q-13.62.07-27.2.03Q.44 140.46 0 130.42Z"/><path fill="#04ccdc" d="M228.48 93.83c6.01-7.15 19.92-5.68 20.04 5.43.43 37.64-45.63 53.15-67.37 22.57-2.71-3.81-5.42-11.59-7.7-15.64-13.51-24.04-35.38-24.95-60.95-24.93-16.7.01-27.96-10.72-29.59-27.44-2.68-27.54 2.04-49.37 33.36-52.57 30.3-3.08 65.87 7.11 75.05 40.19q1.57 5.67 2.72 19.77 1.41 17.44 2.71 34.89.65 8.82 2.11 11.99c5.1 11.12 20.1 10.32 25.66-.15 2.21-4.18.95-10.54 3.96-14.11Zm-68.042-49.652a5.46 5.46 0 0 0-5.489-5.431l-5 .026a5.46 5.46 0 0 0-5.431 5.489l.024 4.7a5.46 5.46 0 0 0 5.489 5.431l5-.026a5.46 5.46 0 0 0 5.431-5.489l-.024-4.7Z"/><rect width="15.92" height="15.62" x="-7.96" y="-7.81" fill="red" rx="5.46" transform="rotate(-.3 8970.44 -29100.093)"/></svg>