<svg xmlns="http://www.w3.org/2000/svg" width="620" height="312" fill="none"><g clip-path="url(#a)"><path fill="#282828" d="M0 0h620v312H0z"/><path fill="#FFFDF2" d="M211.456 37.712c0-1.088.245-2.064.736-2.928a5.349 5.349 0 0 1 2-2.048c.853-.49 1.797-.736 2.832-.736 1.216 0 2.277.293 3.184.88s1.568 1.419 1.984 2.496h-1.744c-.309-.672-.757-1.19-1.344-1.552-.576-.363-1.269-.544-2.08-.544-.779 0-1.477.181-2.096.544a3.79 3.79 0 0 0-1.456 1.552c-.352.661-.528 1.44-.528 2.336 0 .885.176 1.664.528 2.336a3.815 3.815 0 0 0 1.456 1.536c.619.363 1.317.544 2.096.544.811 0 1.504-.176 2.08-.528.587-.363 1.035-.88 1.344-1.552h1.744c-.416 1.067-1.077 1.893-1.984 2.48-.907.576-1.968.864-3.184.864-1.035 0-1.979-.24-2.832-.72a5.38 5.38 0 0 1-2-2.032c-.491-.864-.736-1.84-.736-2.928ZM230.231 43.296l-2.656-4.56h-1.76v4.56h-1.456V32.144h3.6c.843 0 1.552.144 2.128.432.587.288 1.024.677 1.312 1.168.288.49.432 1.05.432 1.68 0 .768-.224 1.445-.672 2.032-.437.587-1.098.976-1.984 1.168l2.8 4.672h-1.744Zm-4.416-5.728h2.144c.79 0 1.382-.192 1.776-.576.395-.395.592-.917.592-1.568 0-.661-.197-1.173-.592-1.536-.384-.363-.976-.544-1.776-.544h-2.144v4.224ZM235.55 33.328v3.728h4.064v1.2h-4.064v3.84h4.544v1.2h-6V32.128h6v1.2h-4.544ZM248.889 40.816h-4.864l-.896 2.48h-1.536l4.032-11.088h1.68l4.016 11.088h-1.536l-.896-2.48Zm-.416-1.184L246.457 34l-2.016 5.632h4.032ZM259.942 32.144v1.184h-3.04v9.968h-1.456v-9.968h-3.056v-1.184h7.552ZM263.19 32.144v11.152h-1.456V32.144h1.456ZM274.888 32.144l-4.208 11.152H269l-4.208-11.152h1.552l3.504 9.616 3.504-9.616h1.536ZM277.94 33.328v3.728h4.064v1.2h-4.064v3.84h4.544v1.2h-6V32.128h6v1.2h-4.544ZM267.658 55.43h-3.04l-.56 1.55h-.96l2.52-6.93h1.05l2.51 6.93h-.96l-.56-1.55Zm-.26-.74-1.26-3.52-1.26 3.52h2.52ZM275.756 56.98h-.91l-3.66-5.55v5.55h-.91V50h.91l3.66 5.54V50h.91v6.98ZM279.478 50.01c.76 0 1.416.143 1.97.43.56.28.986.683 1.28 1.21.3.527.45 1.147.45 1.86 0 .713-.15 1.333-.45 1.86-.294.52-.72.92-1.28 1.2-.554.273-1.21.41-1.97.41h-2.17v-6.97h2.17Zm0 6.22c.9 0 1.586-.237 2.06-.71.473-.48.71-1.15.71-2.01 0-.867-.24-1.543-.72-2.03-.474-.487-1.157-.73-2.05-.73h-1.26v5.48h1.26ZM189.456 66.408c0 .928-.32 1.701-.96 2.32-.629.608-1.595.912-2.896.912h-2.144v4.656H182V63.144h3.6c1.259 0 2.213.304 2.864.912.661.608.992 1.392.992 2.352ZM185.6 68.44c.811 0 1.408-.176 1.792-.528.384-.352.576-.853.576-1.504 0-1.376-.789-2.064-2.368-2.064h-2.144v4.096h2.144ZM197.138 74.296l-2.656-4.56h-1.76v4.56h-1.456V63.144h3.6c.842 0 1.552.144 2.128.432.586.288 1.024.677 1.312 1.168.288.49.432 1.05.432 1.68 0 .768-.224 1.445-.672 2.032-.438.587-1.099.976-1.984 1.168l2.8 4.672h-1.744Zm-4.416-5.728h2.144c.789 0 1.381-.192 1.776-.576.394-.395.592-.917.592-1.568 0-.661-.198-1.173-.592-1.536-.384-.363-.976-.544-1.776-.544h-2.144v4.224ZM206.056 74.408c-1.035 0-1.979-.24-2.832-.72a5.463 5.463 0 0 1-2.032-2.032c-.491-.875-.736-1.856-.736-2.944 0-1.088.245-2.064.736-2.928a5.312 5.312 0 0 1 2.032-2.032c.853-.49 1.797-.736 2.832-.736 1.045 0 1.995.245 2.848.736a5.235 5.235 0 0 1 2.016 2.016c.491.864.736 1.845.736 2.944s-.245 2.08-.736 2.944a5.35 5.35 0 0 1-2.016 2.032c-.853.48-1.803.72-2.848.72Zm0-1.264c.779 0 1.477-.181 2.096-.544a3.763 3.763 0 0 0 1.472-1.552c.363-.672.544-1.45.544-2.336 0-.896-.181-1.675-.544-2.336a3.79 3.79 0 0 0-1.456-1.552c-.619-.363-1.323-.544-2.112-.544-.789 0-1.493.181-2.112.544a3.9 3.9 0 0 0-1.472 1.552c-.352.661-.528 1.44-.528 2.336 0 .885.176 1.664.528 2.336a3.9 3.9 0 0 0 1.472 1.552c.629.363 1.333.544 2.112.544ZM217.05 63.144c1.216 0 2.267.23 3.152.688.896.448 1.579 1.093 2.048 1.936.48.843.72 1.835.72 2.976s-.24 2.133-.72 2.976c-.469.832-1.152 1.472-2.048 1.92-.885.437-1.936.656-3.152.656h-3.472V63.144h3.472Zm0 9.952c1.44 0 2.539-.379 3.296-1.136.757-.768 1.136-1.84 1.136-3.216 0-1.387-.384-2.47-1.152-3.248-.757-.779-1.851-1.168-3.28-1.168h-2.016v8.768h2.016ZM226.315 63.144V70.2c0 .992.24 1.728.72 2.208.49.48 1.168.72 2.032.72.853 0 1.52-.24 2-.72.49-.48.736-1.216.736-2.208v-7.056h1.456v7.04c0 .928-.187 1.712-.56 2.352a3.521 3.521 0 0 1-1.52 1.408c-.63.31-1.339.464-2.128.464-.79 0-1.504-.155-2.144-.464a3.533 3.533 0 0 1-1.504-1.408c-.363-.64-.544-1.424-.544-2.352v-7.04h1.456ZM235.144 68.712c0-1.088.245-2.064.736-2.928a5.342 5.342 0 0 1 2-2.048c.853-.49 1.797-.736 2.832-.736 1.216 0 2.277.293 3.184.88.906.587 1.568 1.419 1.984 2.496h-1.744c-.31-.672-.758-1.19-1.344-1.552-.577-.363-1.27-.544-2.08-.544-.779 0-1.478.181-2.096.544a3.79 3.79 0 0 0-1.456 1.552c-.353.661-.528 1.44-.528 2.336 0 .885.175 1.664.528 2.336a3.815 3.815 0 0 0 1.456 1.536c.618.363 1.317.544 2.096.544.81 0 1.503-.176 2.08-.528.586-.363 1.034-.88 1.344-1.552h1.744c-.416 1.067-1.078 1.893-1.984 2.48-.907.576-1.968.864-3.184.864-1.035 0-1.979-.24-2.832-.72a5.374 5.374 0 0 1-2-2.032c-.491-.864-.736-1.84-.736-2.928ZM254.911 63.144v1.184h-3.04v9.968h-1.456v-9.968h-3.056v-1.184h7.552ZM258.159 63.144v11.152h-1.456V63.144h1.456ZM265.697 74.408c-1.035 0-1.979-.24-2.832-.72a5.456 5.456 0 0 1-2.032-2.032c-.491-.875-.736-1.856-.736-2.944 0-1.088.245-2.064.736-2.928a5.305 5.305 0 0 1 2.032-2.032c.853-.49 1.797-.736 2.832-.736 1.045 0 1.994.245 2.848.736a5.235 5.235 0 0 1 2.016 2.016c.49.864.736 1.845.736 2.944s-.246 2.08-.736 2.944a5.35 5.35 0 0 1-2.016 2.032c-.854.48-1.803.72-2.848.72Zm0-1.264c.778 0 1.477-.181 2.096-.544a3.763 3.763 0 0 0 1.472-1.552c.362-.672.544-1.45.544-2.336 0-.896-.182-1.675-.544-2.336a3.797 3.797 0 0 0-1.456-1.552c-.619-.363-1.323-.544-2.112-.544-.79 0-1.494.181-2.112.544-.619.363-1.11.88-1.472 1.552-.352.661-.528 1.44-.528 2.336 0 .885.176 1.664.528 2.336.362.672.853 1.19 1.472 1.552.629.363 1.333.544 2.112.544ZM281.987 74.296h-1.456l-5.856-8.88v8.88h-1.456V63.128h1.456l5.856 8.864v-8.864h1.456v11.168ZM6.11 134.031h-16.729l-3.901 14.327H-21l12.365-44.844H4.192l12.365 44.844h-6.48L6.11 134.031Zm-1.653-6.039-5.091-18.439h-3.24L-8.9 127.992H4.457ZM35.193 103.514v6.039H29.64v32.765h5.554v6.04H17.936v-6.04h5.554v-32.765h-5.554v-6.039h17.257ZM60.793 134.095v-6.039H83.01v20.302H77.19v-9.252h-1.058a9.698 9.698 0 0 1-2.116 4.305 14.72 14.72 0 0 1-3.769 3.148 16.736 16.736 0 0 1-4.628 1.799c-1.631.428-3.24.642-4.827.642-3.086 0-5.995-.6-8.728-1.799a22.992 22.992 0 0 1-7.075-4.883c-2.028-2.098-3.637-4.54-4.827-7.324-1.146-2.784-1.72-5.76-1.72-8.93 0-3.169.574-6.146 1.72-8.93 1.19-2.784 2.799-5.204 4.827-7.26a22.493 22.493 0 0 1 7.075-4.947c2.733-1.199 5.642-1.799 8.728-1.799 2.38 0 4.673.365 6.877 1.093a21.471 21.471 0 0 1 6.017 3.083 22.476 22.476 0 0 1 4.76 4.755 21.521 21.521 0 0 1 3.307 5.975h-7.01c-1.322-2.699-3.217-4.862-5.686-6.489-2.468-1.628-5.224-2.442-8.265-2.442-2.204 0-4.276.45-6.215 1.35a16.435 16.435 0 0 0-5.092 3.662c-1.41 1.541-2.535 3.34-3.372 5.396-.838 2.056-1.256 4.24-1.256 6.553 0 2.313.418 4.497 1.256 6.553.837 2.056 1.962 3.855 3.372 5.397a16.435 16.435 0 0 0 5.092 3.662c1.939.899 4.01 1.349 6.215 1.349 3.041 0 5.797-.814 8.265-2.441 2.469-1.628 4.386-3.791 5.753-6.489H60.793ZM121.883 103.514v44.844h-12.232l-12.894-38.741H95.17v38.741h-6.215v-44.844h12.298l12.828 38.869h1.587v-38.869h6.215ZM145.003 148.358v-44.844h11.902c3.086 0 5.995.6 8.729 1.799 2.733 1.156 5.113 2.741 7.141 4.754 2.027 2.013 3.614 4.39 4.76 7.131 1.191 2.741 1.786 5.654 1.786 8.738 0 3.084-.595 5.996-1.786 8.737a22.678 22.678 0 0 1-4.76 7.131c-2.028 2.014-4.408 3.62-7.141 4.819-2.734 1.156-5.643 1.735-8.729 1.735h-11.902Zm11.902-5.911c2.204 0 4.276-.428 6.216-1.285a16.059 16.059 0 0 0 5.091-3.534c1.455-1.499 2.601-3.255 3.439-5.268.837-2.013 1.256-4.154 1.256-6.424 0-2.27-.419-4.412-1.256-6.425-.838-2.013-1.984-3.747-3.439-5.204a16.056 16.056 0 0 0-5.091-3.533c-1.94-.857-4.012-1.285-6.216-1.285h-5.686v32.958h5.686ZM216.126 103.514v6.039h-25.39v18.439h18.58v6.039h-18.58v8.287h25.39v6.04h-31.54v-44.844h31.54ZM256.768 103.514l-12.365 44.844h-12.828l-12.365-44.844h6.48l10.712 38.804h3.24l10.646-38.804h6.48ZM292.128 103.514v6.039h-25.391v18.439h18.58v6.039h-18.58v8.287h25.391v6.04h-31.54v-44.844h31.54ZM303.609 103.514v38.804h25.325v6.04h-31.54v-44.844h6.215ZM373.072 125.936c0 3.169-.595 6.146-1.786 8.93-1.146 2.784-2.733 5.225-4.76 7.324-2.028 2.056-4.409 3.683-7.142 4.883-2.689 1.199-5.576 1.799-8.662 1.799-3.085 0-5.995-.6-8.728-1.799a23.011 23.011 0 0 1-7.075-4.883c-2.027-2.099-3.636-4.54-4.827-7.324-1.146-2.784-1.719-5.761-1.719-8.93 0-3.17.573-6.146 1.719-8.93 1.191-2.784 2.8-5.204 4.827-7.26a22.463 22.463 0 0 1 7.075-4.947c2.733-1.199 5.643-1.799 8.728-1.799 3.086 0 5.973.6 8.662 1.799 2.733 1.199 5.114 2.848 7.142 4.947 2.027 2.056 3.614 4.476 4.76 7.26 1.191 2.784 1.786 5.76 1.786 8.93Zm-6.48 0c0-2.356-.419-4.562-1.257-6.618-.837-2.055-1.983-3.854-3.438-5.396a14.892 14.892 0 0 0-5.025-3.598c-1.896-.899-3.945-1.349-6.15-1.349-2.204 0-4.275.45-6.215 1.349a15.789 15.789 0 0 0-5.025 3.598c-1.411 1.542-2.535 3.341-3.373 5.396-.837 2.056-1.256 4.262-1.256 6.618 0 2.355.419 4.561 1.256 6.617.838 2.056 1.962 3.855 3.373 5.397a16.686 16.686 0 0 0 5.025 3.662c1.94.856 4.011 1.285 6.215 1.285 2.205 0 4.254-.429 6.15-1.285 1.939-.9 3.614-2.12 5.025-3.662 1.455-1.542 2.601-3.341 3.438-5.397.838-2.056 1.257-4.262 1.257-6.617ZM378.368 148.358v-44.844h14.943c1.675 0 3.262.321 4.761.964a12.155 12.155 0 0 1 3.901 2.634c1.102 1.07 1.962 2.355 2.579 3.854.661 1.5.992 3.084.992 4.755 0 1.67-.331 3.255-.992 4.754a12.01 12.01 0 0 1-2.579 3.919 12.187 12.187 0 0 1-3.901 2.634 11.967 11.967 0 0 1-4.761.964h-8.728v20.366h-6.215Zm14.943-26.405c.882 0 1.697-.15 2.447-.45a6.143 6.143 0 0 0 1.917-1.349 5.697 5.697 0 0 0 1.323-1.992 5.812 5.812 0 0 0 .529-2.441c0-.857-.177-1.649-.529-2.377a5.697 5.697 0 0 0-1.323-1.992 4.994 4.994 0 0 0-1.917-1.349 5.81 5.81 0 0 0-2.447-.514h-8.728v12.464h8.728ZM456.406 103.514v44.844h-6.282v-38.805h-.793l-10.58 30.581h-10.447l-10.381-30.581h-.794v38.805h-6.282v-44.844h12.035l10.249 30.517h.727l10.58-30.517h11.968ZM493.916 103.514v6.039h-25.39v18.439h18.58v6.039h-18.58v8.287h25.39v6.04h-31.54v-44.844h31.54ZM532.111 103.514v44.844h-12.232l-12.894-38.741h-1.587v38.741h-6.216v-44.844h12.299l12.828 38.869h1.587v-38.869h6.215ZM569 103.514v6.039h-12.695v38.805h-6.216v-38.805h-12.695v-6.039H569ZM298.768 32.451h25.775v20.423h-3.029a15.104 15.104 0 0 1 2.191 4.316c.559 1.547.838 3.2.838 4.961 0 2.105-.387 4.08-1.16 5.927a15.635 15.635 0 0 1-3.222 4.897 15.187 15.187 0 0 1-4.704 3.285c-1.761.774-3.673 1.16-5.735 1.16h-10.954V71.43h10.954c1.246 0 2.406-.237 3.48-.71 1.117-.514 2.062-1.18 2.835-1.996a9.81 9.81 0 0 0 1.933-2.964c.473-1.117.709-2.32.709-3.608 0-1.288-.236-2.49-.709-3.608-.472-1.16-1.117-2.147-1.933-2.963a7.893 7.893 0 0 0-2.835-1.997c-1.074-.473-2.234-.709-3.48-.709h-6.25v-6.056h15.014v-8.311h-19.718v-6.056ZM335.448 50.49a13.792 13.792 0 0 1 4.124-2.255 15.19 15.19 0 0 1 4.833-.773h.258c2.105 0 4.059.408 5.864 1.224a13.738 13.738 0 0 1 4.768 3.286 14.878 14.878 0 0 1 3.222 4.832c.773 1.847 1.16 3.822 1.16 5.927 0 2.105-.408 4.08-1.225 5.927a14.878 14.878 0 0 1-3.222 4.832 16.012 16.012 0 0 1-4.768 3.286c-1.804.773-3.737 1.16-5.799 1.16h-.258c-2.105 0-4.081-.387-5.928-1.16a16.017 16.017 0 0 1-4.769-3.286 16.254 16.254 0 0 1-3.157-4.896c-.773-1.847-1.16-3.823-1.16-5.927V32.45h25.711v5.992h-19.654V50.49Zm9.215 21.454c1.245 0 2.405-.236 3.479-.709a9.954 9.954 0 0 0 2.9-1.997 9.262 9.262 0 0 0 1.998-2.963 8.51 8.51 0 0 0 .773-3.608 8.51 8.51 0 0 0-.773-3.608 8.55 8.55 0 0 0-1.998-2.9 8.541 8.541 0 0 0-2.9-1.996c-1.074-.473-2.234-.71-3.479-.71h-.258a9.002 9.002 0 0 0-3.544.71 9.468 9.468 0 0 0-2.9 1.997 9.948 9.948 0 0 0-1.997 2.899c-.473 1.117-.709 2.32-.709 3.608 0 1.288.236 2.49.709 3.608a10.888 10.888 0 0 0 1.997 2.963 11.252 11.252 0 0 0 2.9 1.997 9.002 9.002 0 0 0 3.544.709h.258ZM392.622 32.451v44.97h-28.095V32.45h28.095ZM370.649 71.3H386.5V38.57h-15.851V71.3ZM409.27 35.608c1.375 0 2.642.258 3.802.773a9.24 9.24 0 0 1 3.093 2.126c.859.859 1.547 1.89 2.062 3.092.516 1.16.774 2.427.774 3.802a9.54 9.54 0 0 1-.774 3.8 10.81 10.81 0 0 1-2.062 3.093c-.859.86-1.89 1.546-3.093 2.062-1.16.515-2.427.773-3.802.773a9.546 9.546 0 0 1-3.801-.773 10.816 10.816 0 0 1-3.093-2.062 10.79 10.79 0 0 1-2.062-3.092 9.54 9.54 0 0 1-.774-3.801c0-1.375.258-2.642.774-3.802.515-1.202 1.202-2.233 2.062-3.092a10.19 10.19 0 0 1 3.093-2.126 9.546 9.546 0 0 1 3.801-.773Zm3.867 9.793c0-1.117-.387-2.04-1.16-2.77-.73-.774-1.633-1.16-2.707-1.16-1.073 0-1.997.386-2.77 1.16-.731.73-1.096 1.653-1.096 2.77 0 1.073.365 1.997 1.096 2.77.773.73 1.697 1.095 2.77 1.095 1.074 0 1.977-.365 2.707-1.095.773-.773 1.16-1.697 1.16-2.77ZM478.766 71.815c-1.933 1.933-4.188 3.458-6.766 4.574-2.534 1.074-5.24 1.611-8.119 1.611-3.007 0-5.842-.601-8.505-1.804a22.401 22.401 0 0 1-6.895-4.896c-1.976-2.105-3.544-4.553-4.704-7.345-1.117-2.792-1.676-5.777-1.676-8.955s.559-6.163 1.676-8.955c1.16-2.792 2.728-5.219 4.704-7.28a21.897 21.897 0 0 1 6.895-4.961C458.039 32.6 460.874 32 463.881 32c2.879 0 5.585.558 8.119 1.675a20.748 20.748 0 0 1 6.766 4.51l-4.059 4.639a15.892 15.892 0 0 0-4.897-3.544c-1.848-.859-3.824-1.288-5.929-1.288-2.148 0-4.167.45-6.057 1.352a15.196 15.196 0 0 0-4.961 3.608c-1.375 1.547-2.471 3.35-3.287 5.412-.816 2.062-1.224 4.274-1.224 6.636s.408 4.574 1.224 6.636c.816 2.061 1.912 3.865 3.287 5.412a16.04 16.04 0 0 0 4.961 3.672c1.89.859 3.909 1.288 6.057 1.288 2.105 0 4.081-.43 5.929-1.288a15.892 15.892 0 0 0 4.897-3.543l4.059 4.638ZM507.5 63.053h-16.303l-3.802 14.367h-6.315l12.05-44.969h12.501l12.05 44.97h-6.315L507.5 63.052Zm-1.611-6.056-4.962-18.49h-3.157l-4.898 18.49h13.017ZM565.677 32.451v44.97h-6.122V38.506h-.773l-10.31 30.667h-10.181l-10.117-30.667h-.773V77.42h-6.122V32.451h11.728l9.988 30.602h.708l10.31-30.602h11.664ZM571.495 77.42V32.451h14.563c1.632 0 3.179.322 4.64.966a11.854 11.854 0 0 1 3.801 2.642c1.074 1.074 1.912 2.362 2.513 3.865.645 1.504.967 3.093.967 4.768 0 1.675-.322 3.264-.967 4.767a12.067 12.067 0 0 1-2.513 3.93 11.854 11.854 0 0 1-3.801 2.642 11.374 11.374 0 0 1-4.64.966h-8.506V77.42h-6.057Zm14.563-26.479a6.2 6.2 0 0 0 2.384-.45 5.97 5.97 0 0 0 1.869-1.354 5.728 5.728 0 0 0 1.289-1.997c.343-.773.515-1.59.515-2.448 0-.86-.172-1.654-.515-2.384a5.728 5.728 0 0 0-1.289-1.997 4.87 4.87 0 0 0-1.869-1.353 5.528 5.528 0 0 0-2.384-.515h-8.506V50.94h8.506ZM621.587 63.053h-16.303l-3.802 14.367h-6.315l12.05-44.969h12.501l12.05 44.97h-6.315l-3.866-14.368Zm-1.611-6.056-4.962-18.49h-3.157l-4.897 18.49h13.016ZM450.155 257c-2.702 0-5.129-.46-7.283-1.38-2.115-.958-3.779-2.262-4.992-3.91-1.214-1.687-1.841-3.623-1.88-5.808h5.697c.196 1.878.979 3.469 2.35 4.773 1.409 1.265 3.445 1.897 6.108 1.897 2.545 0 4.542-.613 5.991-1.84 1.488-1.265 2.232-2.875 2.232-4.83 0-1.534-.431-2.78-1.292-3.738-.862-.958-1.939-1.687-3.231-2.185-1.292-.498-3.034-1.035-5.227-1.61-2.702-.69-4.875-1.38-6.52-2.07-1.605-.69-2.995-1.764-4.17-3.22-1.135-1.496-1.703-3.489-1.703-5.981 0-2.185.568-4.121 1.703-5.808 1.136-1.686 2.722-2.99 4.758-3.91 2.075-.92 4.444-1.38 7.107-1.38 3.837 0 6.969.939 9.397 2.818 2.467 1.878 3.857 4.37 4.17 7.475h-5.873c-.196-1.533-1.018-2.875-2.467-4.025-1.449-1.189-3.367-1.783-5.756-1.783-2.232 0-4.053.575-5.462 1.725-1.41 1.112-2.115 2.684-2.115 4.716 0 1.456.411 2.645 1.234 3.565a8.77 8.77 0 0 0 3.113 2.128c1.253.46 2.995.996 5.227 1.61 2.702.728 4.875 1.456 6.52 2.185 1.644.69 3.054 1.782 4.228 3.277 1.175 1.457 1.762 3.451 1.762 5.981 0 1.955-.528 3.795-1.585 5.52-1.058 1.725-2.624 3.125-4.699 4.198-2.075 1.073-4.523 1.61-7.342 1.61ZM496.844 216.518v4.255h-11.16v35.824h-5.344v-35.824h-11.219v-4.255h27.723ZM524.979 256.597l-9.75-16.388h-6.461v16.388h-5.345v-40.079h13.215c3.094 0 5.698.517 7.812 1.552 2.154 1.035 3.759 2.434 4.816 4.198 1.058 1.763 1.586 3.776 1.586 6.038 0 2.76-.822 5.194-2.467 7.303-1.605 2.108-4.033 3.507-7.283 4.197l10.279 16.791h-6.402Zm-16.211-20.586h7.87c2.898 0 5.071-.69 6.52-2.07 1.449-1.418 2.173-3.297 2.173-5.635 0-2.377-.724-4.217-2.173-5.521-1.41-1.303-3.583-1.955-6.52-1.955h-7.87v15.181ZM563.356 247.684H545.5l-3.289 8.913h-5.638l14.801-39.849h6.167l14.742 39.849h-5.638l-3.289-8.913Zm-1.527-4.255-7.401-20.241-7.4 20.241h14.801ZM603.931 216.518v4.255h-11.159v35.824h-5.345v-35.824h-11.219v-4.255h27.723ZM615.855 220.773v13.398h14.919v4.313h-14.919v13.801h16.681v4.312H610.51V216.46h22.026v4.313h-16.681ZM671.635 228.133c-1.135-2.338-2.78-4.14-4.934-5.405-2.153-1.304-4.659-1.955-7.518-1.955-2.858 0-5.442.651-7.753 1.955-2.271 1.265-4.072 3.105-5.403 5.52-1.292 2.377-1.938 5.137-1.938 8.281 0 3.143.646 5.903 1.938 8.28 1.331 2.377 3.132 4.217 5.403 5.521 2.311 1.265 4.895 1.897 7.753 1.897 3.994 0 7.283-1.169 9.868-3.508 2.584-2.338 4.092-5.501 4.522-9.488h-16.328v-4.255h22.026v4.025a19.825 19.825 0 0 1-3.172 9.086c-1.801 2.722-4.17 4.888-7.107 6.498-2.937 1.572-6.206 2.357-9.809 2.357-3.798 0-7.263-.862-10.396-2.587-3.132-1.764-5.619-4.198-7.459-7.303-1.801-3.105-2.702-6.613-2.702-10.523 0-3.91.901-7.418 2.702-10.523 1.84-3.144 4.327-5.578 7.459-7.303 3.133-1.764 6.598-2.645 10.396-2.645 4.347 0 8.184 1.054 11.512 3.162 3.368 2.109 5.815 5.08 7.342 8.913h-6.402ZM715 216.518l-13.333 24.956v15.123h-5.345v-15.123l-13.391-24.956h5.932l10.102 20.298 10.103-20.298H715ZM-122.845 303c-2.702 0-5.129-.46-7.283-1.38-2.115-.958-3.779-2.262-4.992-3.91-1.214-1.687-1.841-3.623-1.88-5.808h5.697c.196 1.878.979 3.469 2.35 4.773 1.409 1.265 3.445 1.897 6.108 1.897 2.545 0 4.542-.613 5.991-1.84 1.488-1.265 2.232-2.875 2.232-4.83 0-1.534-.431-2.78-1.292-3.738-.862-.958-1.939-1.687-3.231-2.185-1.292-.498-3.034-1.035-5.227-1.61-2.702-.69-4.875-1.38-6.52-2.07-1.605-.69-2.995-1.764-4.17-3.22-1.135-1.496-1.703-3.489-1.703-5.981 0-2.185.568-4.121 1.703-5.808 1.136-1.686 2.722-2.99 4.758-3.91 2.075-.92 4.444-1.38 7.107-1.38 3.837 0 6.969.939 9.397 2.818 2.467 1.878 3.857 4.37 4.17 7.475h-5.873c-.196-1.533-1.018-2.875-2.467-4.025-1.449-1.189-3.367-1.783-5.756-1.783-2.232 0-4.053.575-5.462 1.725-1.41 1.112-2.115 2.684-2.115 4.716 0 1.456.411 2.645 1.234 3.565a8.77 8.77 0 0 0 3.113 2.128c1.253.46 2.995.996 5.227 1.61 2.702.728 4.875 1.456 6.52 2.185 1.644.69 3.054 1.782 4.228 3.277 1.175 1.457 1.762 3.451 1.762 5.981 0 1.955-.528 3.795-1.585 5.52-1.058 1.725-2.624 3.125-4.699 4.198-2.075 1.073-4.523 1.61-7.342 1.61ZM-76.156 262.518v4.255h-11.16v35.824h-5.344v-35.824h-11.219v-4.255h27.723ZM-48.021 302.597l-9.75-16.388h-6.461v16.388h-5.345v-40.079h13.215c3.094 0 5.698.517 7.812 1.552 2.154 1.035 3.76 2.434 4.816 4.198 1.058 1.763 1.586 3.776 1.586 6.038 0 2.76-.822 5.194-2.467 7.303-1.605 2.108-4.033 3.507-7.283 4.197l10.279 16.791h-6.402Zm-16.211-20.586h7.87c2.898 0 5.071-.69 6.52-2.07 1.449-1.418 2.173-3.297 2.173-5.635 0-2.377-.724-4.217-2.173-5.521-1.41-1.303-3.583-1.955-6.52-1.955h-7.87v15.181ZM-9.644 293.684H-27.5l-3.289 8.913h-5.638l14.8-39.849h6.168l14.742 39.849h-5.638l-3.29-8.913Zm-1.527-4.255-7.4-20.241-7.401 20.241h14.8ZM30.931 262.518v4.255h-11.16v35.824h-5.344v-35.824H3.208v-4.255h27.723ZM42.855 266.773v13.398h14.919v4.313H42.855v13.801h16.68v4.312H37.51V262.46h22.026v4.313h-16.68ZM98.635 274.133c-1.135-2.338-2.78-4.14-4.934-5.405-2.153-1.304-4.66-1.955-7.518-1.955-2.858 0-5.442.651-7.753 1.955-2.27 1.265-4.072 3.105-5.403 5.52-1.292 2.377-1.938 5.137-1.938 8.281 0 3.143.646 5.903 1.938 8.28 1.331 2.377 3.132 4.217 5.403 5.521 2.31 1.265 4.895 1.897 7.753 1.897 3.994 0 7.283-1.169 9.868-3.508 2.584-2.338 4.092-5.501 4.522-9.488H84.245v-4.255h22.026v4.025a19.825 19.825 0 0 1-3.172 9.086c-1.801 2.722-4.17 4.888-7.107 6.498-2.937 1.572-6.206 2.357-9.809 2.357-3.798 0-7.263-.862-10.396-2.587-3.132-1.764-5.619-4.198-7.459-7.303-1.801-3.105-2.702-6.613-2.702-10.523 0-3.91.9-7.418 2.702-10.523 1.84-3.144 4.327-5.578 7.46-7.303 3.132-1.764 6.597-2.645 10.395-2.645 4.347 0 8.184 1.054 11.512 3.162 3.368 2.109 5.815 5.08 7.342 8.913h-6.402ZM142 262.518l-13.333 24.956v15.123h-5.345v-15.123l-13.391-24.956h5.932l10.102 20.298 10.103-20.298H142ZM352.491 216.169c1.573 0 2.932.302 4.077.907 1.159.591 2.042 1.442 2.649 2.553.621 1.111.931 2.419.931 3.924s-.31 2.813-.931 3.924c-.607 1.097-1.49 1.941-2.649 2.531-1.145.577-2.504.865-4.077.865H348v-14.704h4.491Zm0 13.122c1.862 0 3.284-.499 4.263-1.498.98-1.012 1.469-2.426 1.469-4.24 0-1.829-.496-3.256-1.49-4.283-.979-1.027-2.393-1.54-4.242-1.54h-2.608v11.561h2.608ZM364.515 216.169v14.704h-1.883v-14.704h1.883ZM378.652 220.43c-.4-.858-.979-1.519-1.738-1.983-.759-.478-1.642-.717-2.649-.717-1.007 0-1.918.239-2.732.717-.8.464-1.435 1.139-1.904 2.026-.455.872-.683 1.884-.683 3.038 0 1.153.228 2.166.683 3.038.469.872 1.104 1.547 1.904 2.025.814.464 1.725.696 2.732.696 1.407 0 2.566-.429 3.477-1.287.91-.858 1.441-2.018 1.593-3.481h-5.753v-1.561h7.761v1.477a7.473 7.473 0 0 1-1.118 3.333 7.081 7.081 0 0 1-2.504 2.384c-1.035.577-2.187.865-3.456.865-1.338 0-2.559-.316-3.663-.949a7.137 7.137 0 0 1-2.629-2.68c-.634-1.139-.951-2.426-.951-3.86 0-1.435.317-2.722.951-3.861.649-1.154 1.525-2.047 2.629-2.68 1.104-.647 2.325-.97 3.663-.97 1.531 0 2.883.387 4.056 1.16 1.187.774 2.049 1.864 2.587 3.27h-2.256ZM385.716 216.169v14.704h-1.883v-14.704h1.883ZM397.804 216.169v1.561h-3.932v13.143h-1.883V217.73h-3.953v-1.561h9.768ZM408.649 227.603h-6.292l-1.159 3.27h-1.987l5.216-14.62h2.173l5.194 14.62h-1.987l-1.158-3.27Zm-.539-1.561-2.607-7.426-2.608 7.426h5.215ZM415.95 229.312H421v1.561h-6.933v-14.704h1.883v13.143ZM322.786 242.274v14.599h-1.903v-10.886l-4.81 10.886h-1.339l-4.831-10.907v10.907H308v-14.599h2.05l5.354 12.068 5.353-12.068h2.029ZM334.63 253.603h-6.358l-1.171 3.27h-2.008l5.271-14.62h2.196l5.249 14.62h-2.008l-1.171-3.27Zm-.544-1.561-2.635-7.426-2.635 7.426h5.27ZM347.781 256.873l-3.471-6.012h-2.301v6.012h-1.903v-14.704h4.706c1.101 0 2.028.19 2.781.569.767.38 1.339.894 1.715 1.54.377.647.565 1.386.565 2.216 0 1.012-.293 1.905-.879 2.679-.571.774-1.436 1.287-2.593 1.54l3.66 6.16h-2.28Zm-5.772-7.552h2.803c1.031 0 1.805-.253 2.321-.76.516-.52.774-1.209.774-2.067 0-.872-.258-1.547-.774-2.026-.502-.478-1.276-.717-2.321-.717h-2.803v5.57ZM360.735 256.873l-6.002-6.708v6.708h-1.903v-14.704h1.903v6.814l6.023-6.814h2.405l-6.608 7.363 6.671 7.341h-2.489ZM367.253 243.73v4.916h5.312v1.582h-5.312v5.063h5.939v1.582h-7.842v-14.725h7.842v1.582h-5.939ZM385.044 242.169v1.561h-3.973v13.143h-1.904V243.73h-3.994v-1.561h9.871ZM389.29 242.169v14.704h-1.903v-14.704h1.903ZM403.994 256.873h-1.903l-7.654-11.708v11.708h-1.903v-14.725h1.903l7.654 11.687v-11.687h1.903v14.725ZM418.281 246.43c-.404-.858-.99-1.519-1.757-1.983-.766-.478-1.659-.717-2.677-.717-1.017 0-1.938.239-2.76.717-.809.464-1.45 1.139-1.924 2.026-.46.872-.69 1.884-.69 3.038 0 1.153.23 2.166.69 3.038.474.872 1.115 1.547 1.924 2.025.822.464 1.743.696 2.76.696 1.423 0 2.594-.429 3.514-1.287.92-.858 1.457-2.018 1.61-3.481h-5.814v-1.561H421v1.477a7.426 7.426 0 0 1-1.129 3.333 7.128 7.128 0 0 1-2.531 2.384c-1.046.577-2.21.865-3.493.865-1.352 0-2.586-.316-3.701-.949a7.162 7.162 0 0 1-2.656-2.68c-.642-1.139-.962-2.426-.962-3.86 0-1.435.32-2.722.962-3.861.655-1.154 1.54-2.047 2.656-2.68 1.115-.647 2.349-.97 3.701-.97 1.548 0 2.914.387 4.1 1.16 1.199.774 2.07 1.864 2.614 3.27h-2.28ZM3.688 171.032v3.728h4.064v1.2H3.688v3.84h4.544v1.2h-6v-11.168h6v1.2H3.688ZM16.74 169.848v1.184H11.89v3.76h3.936v1.184h-3.936V181h-1.456v-11.152h6.304ZM24.802 169.848v1.184h-4.848v3.76h3.936v1.184h-3.936V181h-1.456v-11.152h6.304ZM28.016 171.032v3.728h4.064v1.2h-4.064v3.84h4.544v1.2h-6v-11.168h6v1.2h-4.544ZM34.22 175.416c0-1.088.245-2.064.735-2.928a5.35 5.35 0 0 1 2-2.048c.854-.491 1.798-.736 2.832-.736 1.216 0 2.278.293 3.184.88.907.587 1.568 1.419 1.984 2.496h-1.744c-.31-.672-.757-1.189-1.344-1.552-.576-.363-1.27-.544-2.08-.544-.778 0-1.477.181-2.096.544a3.795 3.795 0 0 0-1.456 1.552c-.352.661-.528 1.44-.528 2.336 0 .885.176 1.664.528 2.336a3.821 3.821 0 0 0 1.456 1.536c.619.363 1.318.544 2.096.544.81 0 1.504-.176 2.08-.528.587-.363 1.035-.88 1.344-1.552h1.744c-.416 1.067-1.077 1.893-1.984 2.48-.906.576-1.968.864-3.184.864-1.034 0-1.978-.24-2.832-.72a5.384 5.384 0 0 1-2-2.032c-.49-.864-.736-1.84-.736-2.928ZM53.987 169.848v1.184h-3.04V181H49.49v-9.968h-3.056v-1.184h7.552ZM57.235 169.848V181h-1.456v-11.152h1.456ZM68.932 169.848 64.724 181h-1.68l-4.208-11.152h1.552l3.504 9.616 3.504-9.616h1.536ZM71.985 171.032v3.728h4.064v1.2h-4.064v3.84h4.544v1.2h-6v-11.168h6v1.2h-4.544ZM94.529 175.416c0-1.088.245-2.064.736-2.928a5.348 5.348 0 0 1 2-2.048c.853-.491 1.797-.736 2.832-.736 1.216 0 2.277.293 3.184.88s1.568 1.419 1.984 2.496h-1.744c-.309-.672-.757-1.189-1.344-1.552-.576-.363-1.269-.544-2.08-.544-.779 0-1.477.181-2.096.544a3.794 3.794 0 0 0-1.456 1.552c-.352.661-.528 1.44-.528 2.336 0 .885.176 1.664.528 2.336A3.82 3.82 0 0 0 98 179.288c.618.363 1.317.544 2.096.544.811 0 1.504-.176 2.08-.528.587-.363 1.035-.88 1.344-1.552h1.744c-.416 1.067-1.077 1.893-1.984 2.48-.907.576-1.968.864-3.184.864-1.035 0-1.979-.24-2.832-.72a5.382 5.382 0 0 1-2-2.032c-.49-.864-.736-1.84-.736-2.928ZM112.488 181.112c-1.034 0-1.978-.24-2.832-.72a5.473 5.473 0 0 1-2.032-2.032c-.49-.875-.736-1.856-.736-2.944 0-1.088.246-2.064.736-2.928a5.317 5.317 0 0 1 2.032-2.032c.854-.491 1.798-.736 2.832-.736 1.046 0 1.995.245 2.848.736a5.222 5.222 0 0 1 2.016 2.016c.491.864.736 1.845.736 2.944s-.245 2.08-.736 2.944a5.339 5.339 0 0 1-2.016 2.032c-.853.48-1.802.72-2.848.72Zm0-1.264c.779 0 1.478-.181 2.096-.544.63-.363 1.12-.88 1.472-1.552.363-.672.544-1.451.544-2.336 0-.896-.181-1.675-.544-2.336a3.792 3.792 0 0 0-1.456-1.552c-.618-.363-1.322-.544-2.112-.544-.789 0-1.493.181-2.112.544a3.909 3.909 0 0 0-1.472 1.552c-.352.661-.528 1.44-.528 2.336 0 .885.176 1.664.528 2.336a3.909 3.909 0 0 0 1.472 1.552c.63.363 1.334.544 2.112.544ZM128.778 181h-1.456l-5.856-8.88V181h-1.456v-11.168h1.456l5.856 8.864v-8.864h1.456V181ZM138.124 169.848v1.184h-3.04V181h-1.456v-9.968h-3.056v-1.184h7.552ZM141.373 171.032v3.728h4.064v1.2h-4.064v3.84h4.544v1.2h-6v-11.168h6v1.2h-4.544ZM156.888 181h-1.456l-5.856-8.88V181h-1.456v-11.168h1.456l5.856 8.864v-8.864h1.456V181ZM166.234 169.848v1.184h-3.04V181h-1.456v-9.968h-3.056v-1.184h7.552ZM184.234 175.416c0-1.088.245-2.064.736-2.928a5.342 5.342 0 0 1 2-2.048c.853-.491 1.797-.736 2.832-.736 1.216 0 2.277.293 3.184.88.906.587 1.568 1.419 1.984 2.496h-1.744c-.31-.672-.758-1.189-1.344-1.552-.576-.363-1.27-.544-2.08-.544-.779 0-1.478.181-2.096.544a3.792 3.792 0 0 0-1.456 1.552c-.352.661-.528 1.44-.528 2.336 0 .885.176 1.664.528 2.336a3.818 3.818 0 0 0 1.456 1.536c.618.363 1.317.544 2.096.544.81 0 1.504-.176 2.08-.528.586-.363 1.034-.88 1.344-1.552h1.744c-.416 1.067-1.078 1.893-1.984 2.48-.907.576-1.968.864-3.184.864-1.035 0-1.979-.24-2.832-.72a5.376 5.376 0 0 1-2-2.032c-.491-.864-.736-1.84-.736-2.928ZM203.009 181l-2.656-4.56h-1.76V181h-1.456v-11.152h3.6c.843 0 1.552.144 2.128.432.587.288 1.024.677 1.312 1.168.288.491.432 1.051.432 1.68 0 .768-.224 1.445-.672 2.032-.437.587-1.099.976-1.984 1.168l2.8 4.672h-1.744Zm-4.416-5.728h2.144c.789 0 1.381-.192 1.776-.576.395-.395.592-.917.592-1.568 0-.661-.197-1.173-.592-1.536-.384-.363-.976-.544-1.776-.544h-2.144v4.224ZM208.328 171.032v3.728h4.064v1.2h-4.064v3.84h4.544v1.2h-6v-11.168h6v1.2h-4.544ZM221.667 178.52h-4.864l-.896 2.48h-1.536l4.032-11.088h1.68L224.099 181h-1.536l-.896-2.48Zm-.416-1.184-2.016-5.632-2.016 5.632h4.032ZM232.72 169.848v1.184h-3.04V181h-1.456v-9.968h-3.056v-1.184h7.552ZM235.968 169.848V181h-1.456v-11.152h1.456ZM243.506 181.112c-1.035 0-1.979-.24-2.832-.72a5.458 5.458 0 0 1-2.032-2.032c-.491-.875-.736-1.856-.736-2.944 0-1.088.245-2.064.736-2.928a5.303 5.303 0 0 1 2.032-2.032c.853-.491 1.797-.736 2.832-.736 1.045 0 1.994.245 2.848.736a5.235 5.235 0 0 1 2.016 2.016c.49.864.736 1.845.736 2.944s-.246 2.08-.736 2.944a5.353 5.353 0 0 1-2.016 2.032c-.854.48-1.803.72-2.848.72Zm0-1.264c.778 0 1.477-.181 2.096-.544a3.764 3.764 0 0 0 1.472-1.552c.362-.672.544-1.451.544-2.336 0-.896-.182-1.675-.544-2.336a3.799 3.799 0 0 0-1.456-1.552c-.619-.363-1.323-.544-2.112-.544-.79 0-1.494.181-2.112.544-.619.363-1.11.88-1.472 1.552-.352.661-.528 1.44-.528 2.336 0 .885.176 1.664.528 2.336a3.895 3.895 0 0 0 1.472 1.552c.629.363 1.333.544 2.112.544ZM259.796 181h-1.456l-5.856-8.88V181h-1.456v-11.168h1.456l5.856 8.864v-8.864h1.456V181Z"/></g><defs><clipPath id="a"><path fill="#fff" d="M0 0h620v312H0z"/></clipPath></defs></svg>